<svg width="435" height="199.999" xmlns="http://www.w3.org/2000/svg">
 <g>
  <title>background</title>
  <rect x="-1" y="-1" width="238.41436" height="110.69572" id="canvas_background" fill="none"/>
 </g>

 <g>
  <title>Layer 1</title>
  <g id="XMLID_339_">
   <g id="XMLID_137_" opacity="0.1">
    <path id="XMLID_81_" fill="#020202" d="m414.698,38.78673l0,0c0,12.73 -10.318,23.05 -23.049,23.05l-53.866,0l0,0c0,17.702 -14.35,32.051 -32.05,32.051l-44.426,0c-9.874,0 -17.881,8.005 -17.881,17.883l0,0c0,9.874 8.007,17.879 17.881,17.879l154.073,0c10.307,0 18.663,8.356 18.663,18.663l0,0c0,10.307 -8.356,18.663 -18.663,18.663l-100.396,0c-15.955,0 -28.886,12.956 -28.849,28.914l0,0l-195.062,0.411l0.575,-34.211l-69.298,0c-12.344,0.001 -22.35,-10.004 -22.35,-22.346l0,0c0,-12.344 10.006,-22.351 22.35,-22.351l53.779,0c11.38,0 20.608,-9.228 20.608,-20.609l0,0c0,-11.381 -9.228,-20.609 -20.608,-20.609l-4.984,0c-16.689,0 -30.22,-13.528 -30.22,-30.22l0,0c0,-16.689 13.531,-30.22 30.22,-30.22l320.505,0c12.73,0.001 23.048,10.322 23.048,23.052z"/>
   </g>
   <g id="XMLID_184_">
    <g id="XMLID_186_">
     <path id="XMLID_737_" fill="#0686D8" d="m174.757,39.50373l-8.6,0c-0.833,0 -1.508,-0.675 -1.508,-1.508s0.676,-1.509 1.508,-1.509l8.6,0c0.833,0 1.509,0.676 1.509,1.509s-0.676,1.508 -1.509,1.508z"/>
    </g>
    <g id="XMLID_185_">
     <path id="XMLID_736_" fill="#0686D8" d="m170.458,43.80373c-0.833,0 -1.509,-0.676 -1.509,-1.509l0,-8.599c0,-0.833 0.676,-1.509 1.509,-1.509c0.833,0 1.508,0.676 1.508,1.509l0,8.599c0,0.832 -0.675,1.509 -1.508,1.509z"/>
    </g>
   </g>
   <g id="XMLID_286_">
    <g id="XMLID_303_">
     <path id="XMLID_735_" fill="#0686D8" d="m380.184,102.70573l-8.602,0c-0.833,0 -1.509,-0.677 -1.509,-1.51c0,-0.832 0.677,-1.508 1.509,-1.508l8.602,0c0.832,0 1.509,0.676 1.509,1.508c0,0.832 -0.677,1.51 -1.509,1.51z"/>
    </g>
    <g id="XMLID_301_">
     <path id="XMLID_734_" fill="#0686D8" d="m375.883,107.00273c-0.834,0 -1.509,-0.676 -1.509,-1.508l0,-8.599c0,-0.833 0.676,-1.509 1.509,-1.509s1.509,0.676 1.509,1.509l0,8.599c0,0.832 -0.676,1.508 -1.509,1.508z"/>
    </g>
   </g>
   <g id="XMLID_133_">
    <g id="XMLID_138_">
     <path id="XMLID_733_" fill="#0686D8" d="m247.85,10.90873c-0.385,0 -0.771,-0.147 -1.066,-0.442c-0.59,-0.59 -0.59,-1.545 0,-2.134l6.081,-6.081c0.589,-0.59 1.545,-0.59 2.133,0c0.591,0.589 0.591,1.544 0,2.133l-6.08,6.081c-0.296,0.296 -0.683,0.443 -1.068,0.443z"/>
    </g>
    <g id="XMLID_136_">
     <path id="XMLID_732_" fill="#0686D8" d="m253.93,10.90873c-0.386,0 -0.771,-0.147 -1.065,-0.442l-6.081,-6.081c-0.59,-0.589 -0.59,-1.544 0,-2.133c0.59,-0.59 1.545,-0.59 2.134,0l6.08,6.081c0.591,0.589 0.591,1.544 0,2.134c-0.296,0.294 -0.683,0.441 -1.068,0.441z"/>
    </g>
   </g>
   <g id="XMLID_307_">
    <g id="XMLID_309_">
     <path id="XMLID_731_" fill="#0686D8" d="m102.653,84.00173c-0.386,0 -0.772,-0.147 -1.066,-0.442c-0.589,-0.589 -0.589,-1.544 0,-2.133l6.081,-6.081c0.59,-0.589 1.544,-0.589 2.134,0c0.589,0.59 0.589,1.544 0,2.134l-6.081,6.08c-0.296,0.294 -0.682,0.442 -1.068,0.442z"/>
    </g>
    <g id="XMLID_308_">
     <path id="XMLID_730_" fill="#0686D8" d="m108.733,84.00173c-0.386,0 -0.772,-0.147 -1.067,-0.442l-6.081,-6.081c-0.589,-0.59 -0.589,-1.544 0,-2.134c0.589,-0.589 1.544,-0.589 2.133,0l6.081,6.081c0.589,0.589 0.589,1.544 0,2.133c-0.294,0.295 -0.68,0.443 -1.066,0.443z"/>
    </g>
   </g>
   <g id="XMLID_135_">
    <rect id="XMLID_729_" x="110.306" y="36.48673" fill="#0686D8" width="34.997" height="3.018"/>
   </g>
   <g id="XMLID_266_">
    <rect id="XMLID_728_" x="327.834" y="99.68673" fill="#0686D8" width="34.995" height="3.019"/>
   </g>
   <g id="XMLID_335_">
    <rect id="XMLID_727_" x="273.383" y="32.18573" fill="#0686D8" width="66.816" height="3.017"/>
   </g>
   <g id="XMLID_414_">
    <rect id="XMLID_726_" x="150.373" y="4.85173" fill="#0686D8" width="89.902" height="3.018"/>
   </g>
   <g id="XMLID_306_">
    <rect id="XMLID_725_" x="20.243" y="77.94173" fill="#0686D8" width="77.243" height="3.018"/>
   </g>
   <g id="XMLID_304_">
    <rect id="XMLID_724_" x="341.374" y="80.36873" fill="#0686D8" width="69.017" height="3.017"/>
   </g>
   <g id="XMLID_105_">
    <rect id="XMLID_723_" x="148.32" y="36.48673" fill="#0686D8" width="7.183" height="3.018"/>
   </g>
   <g id="XMLID_104_">
    <circle id="XMLID_82_" fill="#0686D8" cx="54.927" cy="139.56873" r="2.392"/>
   </g>
   <g id="XMLID_327_">
    <circle id="XMLID_84_" fill="#0686D8" cx="408" cy="99.49773" r="2.39"/>
   </g>
   <g id="XMLID_329_">
    <circle id="XMLID_85_" fill="#0686D8" cx="317.69" cy="51.09773" r="2.391"/>
   </g>
   <g id="XMLID_332_">
    <circle id="XMLID_86_" fill="#0686D8" cx="111.704" cy="10.79673" r="3.475"/>
   </g>
   <g id="XMLID_324_">
    <circle id="XMLID_87_" fill="#0686D8" cx="201" cy="24.71573" r="2.392"/>
   </g>
   <g id="XMLID_256_">
    <circle id="XMLID_89_" fill="#0686D8" cx="80.965" cy="96.45273" r="3.046"/>
   </g>
   <g id="XMLID_326_">
    <circle id="XMLID_90_" fill="#0686D8" cx="365.876" cy="141.96173" r="3.046"/>
   </g>
   <g id="XMLID_330_">
    <circle id="XMLID_91_" fill="#0686D8" cx="345.332" cy="3.31973" r="3.046"/>
   </g>
   <g id="XMLID_95_">
    <g id="XMLID_116_">
     <path fill="#5FB0E5" d="m310.734,154.52873l-162.729,0l0,-92.82c0,-2.193 1.776,-3.971 3.971,-3.971l154.79,0c2.192,0 3.969,1.778 3.969,3.971l0,92.82l-0.001,0z" id="svg_1"/>
    </g>
    <g id="XMLID_115_" stroke="null">
     <path id="XMLID_722_" fill="#0686D8" d="m149.514,106.24673l-3.019,0l0,-40.64c0,-5.171 4.207,-9.377 9.377,-9.377l38.453,0l0,3.017l-38.453,0c-3.506,0 -6.359,2.853 -6.359,6.359l0,40.641l0.001,0z" stroke="null"/>
    </g>
    <g id="XMLID_112_">
     <path id="XMLID_721_" fill="#0686D8" d="m312.242,112.00673l-3.018,0l0,-46.4c0,-3.507 -2.852,-6.359 -6.356,-6.359l-34.703,0l0,-3.017l34.703,0c5.171,0 9.374,4.207 9.374,9.377l0,46.399l0,0z"/>
    </g>
    <g id="XMLID_109_">
     <rect x="156.835" y="67.20173" fill="#FFFFFF" width="145.251" height="76.45" id="svg_2"/>
    </g>
    <g id="XMLID_106_">
     <rect x="204.856" y="169.19873" fill="#FFFFFF" width="49.027" height="29.023" id="svg_3"/>
    </g>
    <g id="XMLID_103_">
     <rect x="204.856" y="169.19873" fill="#9ECFEF" width="49.027" height="14.513" id="svg_4"/>
    </g>
    <g id="XMLID_102_">
     <path id="XMLID_718_" fill="#0686D8" d="m255.393,199.73173l-52.045,0l0,-32.041l52.045,0l0,32.041zm-49.028,-3.018l46.009,0l0,-26.006l-46.009,0l0,26.006z"/>
    </g>
    <g id="XMLID_101_">
     <path fill="#FFFFFF" d="m310.734,150.97373l-162.729,0l0,17.954c0,2.222 1.801,4.024 4.022,4.024l154.683,0c2.225,0 4.023,-1.803 4.023,-4.024l0,-17.954l0.001,0z" id="svg_5"/>
    </g>
    <g id="XMLID_98_">
     <rect id="XMLID_717_" x="192.264" y="171.44173" fill="#0686D8" width="89.299" height="3.019"/>
    </g>
    <g id="XMLID_97_">
     <rect id="XMLID_716_" x="193.271" y="149.46673" fill="#0686D8" width="89.299" height="3.017"/>
    </g>
    <g id="XMLID_96_">
     <rect id="XMLID_715_" x="195.324" y="197.25573" fill="#0686D8" width="68.731" height="3.018"/>
    </g>
    <g id="svg_14" stroke="null">
     <rect id="svg_13" x="190.61128" y="56.2228" fill="#0686D8" width="89.299" height="2.92736" stroke="null"/>
    </g>
   </g>
   <g id="XMLID_75_">
    <g id="XMLID_802_">
     <path fill="#5FB0E5" d="m186.986,194.09673l-112.924,0c-1.105,0 -2.012,-0.906 -2.012,-2.013l0,-80.035c0,-1.106 0.907,-2.011 2.012,-2.011l112.924,0c1.107,0 2.012,0.904 2.012,2.011l0,80.035c0,1.107 -0.905,2.013 -2.012,2.013z" id="svg_6"/>
    </g>
    <g id="XMLID_801_">
     <rect id="XMLID_714_" x="153.64159" y="108.52773" fill="#0686D8" width="24.28582" height="3.018" stroke="null"/>
    </g>
    <g id="XMLID_93_">
     <path id="XMLID_713_" fill="#0686D8" d="m73.56,189.17773l-3.017,0l0,-76.233c0,-2.435 1.98,-4.416 4.414,-4.416l83.125,0l0,3.018l-83.126,0c-0.77,0 -1.396,0.626 -1.396,1.398l0,76.233z"/>
    </g>
    <g id="XMLID_92_">
     <path id="XMLID_712_" fill="#0686D8" d="m186.092,195.60673l0,-3.018c0.77,0 1.397,-0.627 1.397,-1.396l0,-78.248c0,-0.77 -0.627,-1.396 -1.397,-1.396l-11.354,0l0,-3.018l11.354,0c2.435,0 4.414,1.981 4.414,4.414l0,78.248c0,2.433 -1.98,4.414 -4.414,4.414z"/>
    </g>
    <g id="XMLID_799_">
     <rect x="77.729" y="116.65073" fill="#FFFFFF" width="104.954" height="68.214" id="svg_7"/>
    </g>
    <g id="XMLID_798_">
     <path id="XMLID_100_" fill="#FFFFFF" d="m186.954,198.76473l-114.149,0c-2.742,0 -5.079,-1.985 -5.521,-4.689l-0.813,-4.959l52.906,0l2.025,2.906l14.619,0l2.188,-2.906l55.734,0l-0.708,4.312c-0.505,3.077 -3.163,5.336 -6.281,5.336z"/>
    </g>
    <g id="XMLID_797_">
     <path id="XMLID_708_" fill="#0686D8" d="m186.954,200.27373l-114.149,0c-3.497,0 -6.446,-2.506 -7.011,-5.955l-1.1,-6.711l55.47,0l2.024,2.906l13.078,0l2.189,-2.906l58.262,0l-0.993,6.065c-0.626,3.825 -3.894,6.601 -7.77,6.601zm-118.707,-9.649l0.526,3.206c0.325,1.986 2.021,3.425 4.032,3.425l114.149,0c2.391,0 4.406,-1.71 4.792,-4.07l0.421,-2.561l-53.207,0l-2.188,2.906l-16.16,0l-2.024,-2.906l-50.341,0z"/>
    </g>
   </g>
   <g id="XMLID_139_">
    <g id="XMLID_284_">
     <path fill="#FFFFFF" d="m285.748,194.91473l0,-75.095c0,-2.124 1.724,-3.848 3.847,-3.848l51.891,0c2.125,0 3.846,1.724 3.846,3.848l0,75.095c0,2.126 -1.721,3.85 -3.846,3.85l-51.891,0c-2.124,0 -3.847,-1.724 -3.847,-3.85z" id="svg_8"/>
    </g>
    <g id="XMLID_283_">
     <path id="XMLID_707_" fill="#0686D8" d="m341.485,200.27373l-51.891,0c-2.952,0 -5.355,-2.403 -5.355,-5.358l0,-75.095c0,-2.954 2.403,-5.355 5.355,-5.355l51.891,0c2.952,0 5.354,2.401 5.354,5.355l0,4.363l-3.018,0l0,-4.363c0,-1.289 -1.05,-2.338 -2.337,-2.338l-51.891,0c-1.288,0 -2.337,1.049 -2.337,2.338l0,75.095c0,1.292 1.049,2.341 2.337,2.341l51.891,0c1.287,0 2.337,-1.049 2.337,-2.341l0,-50.426l3.018,0l0,50.426c0.001,2.954 -2.402,5.358 -5.354,5.358z"/>
    </g>
    <g stroke="null" id="XMLID_281_">
     <rect stroke="null" id="XMLID_706_" x="343.822" y="121.74068" fill="#0686D8" width="3.018" height="29.05449"/>
    </g>
    <g id="XMLID_251_">
     <rect id="XMLID_705_" x="307.89" y="120.89673" fill="#0686D8" width="15.3" height="3.018"/>
    </g>
    <g id="XMLID_248_">
     <rect x="290.845" y="126.69173" fill="#D2E9F7" width="49.391" height="60.548" id="svg_9"/>
    </g>
    <g id="XMLID_143_">
     <path id="XMLID_701_" fill="#0686D8" d="m315.539,194.78773c-2.02,0 -3.66,-1.643 -3.66,-3.66c0,-2.017 1.641,-3.66 3.66,-3.66s3.66,1.644 3.66,3.66c0,2.018 -1.64,3.66 -3.66,3.66zm0,-4.303c-0.354,0 -0.643,0.288 -0.643,0.643s0.289,0.644 0.643,0.644c0.354,0 0.643,-0.289 0.643,-0.644c0,-0.353 -0.288,-0.643 -0.643,-0.643z"/>
    </g>
   </g>
   <g id="XMLID_99_">
    <g id="XMLID_189_">
     <rect id="XMLID_691_" x="42.01" y="197.25573" fill="#0686D8" width="329.572" height="3.018"/>
    </g>
    <g id="XMLID_188_">
     <rect id="XMLID_690_" x="32.831" y="197.25573" fill="#0686D8" width="5.512" height="3.018"/>
    </g>
    <g id="XMLID_187_">
     <rect id="XMLID_689_" x="374.726" y="197.25573" fill="#0686D8" width="12.171" height="3.018"/>
    </g>
   </g>
   <polyline fill="none" stroke="null" stroke-width="null" stroke-opacity="null" fill-opacity="null" opacity="0.5" points="191.9143524169922,57.08307531476021 192.3398895263672,57.08307531476021 192.97817993164062,57.08307531476021 193.82923889160156,57.29584005475044 194.46754455566406,57.29584005475044 195.1058349609375,57.50860479474068 195.74412536621094,57.50860479474068 196.59519958496094,57.50860479474068 197.23348999023438,57.50860479474068 197.8717803955078,57.50860479474068 198.2973175048828,57.72136953473091 198.72283935546875,57.72136953473091 199.57391357421875,57.72136953473091 200.4249725341797,57.72136953473091 201.27603149414062,57.72136953473091 202.55262756347656,57.72136953473091 203.4036865234375,57.72136953473091 204.25474548339844,57.72136953473091 205.10580444335938,57.72136953473091 205.9568634033203,57.72136953473091 206.5951690673828,57.72136953473091 207.02069091796875,57.72136953473091 207.44622802734375,57.72136953473091 207.8717498779297,57.72136953473091 208.5100555419922,57.72136953473091 209.36111450195312,57.72136953473091 209.99940490722656,57.50860479474068 211.063232421875,57.50860479474068 212.12705993652344,57.50860479474068 212.97811889648438,57.50860479474068 213.40365600585938,57.29584005475044 213.61642456054688,57.29584005475044 " id="svg_12" stroke-linecap="round"/>
  </g>
  <path fill="none" stroke="null" stroke-width="null" stroke-opacity="null" fill-opacity="null" id="svg_16" d="m186.24983,100.57015c0,0 1.9534,-0.68538 2.71741,-1.63045c2.18779,-2.70625 6.36905,-4.51644 8.15222,-5.97829c1.51541,-1.24233 2.07813,-1.35123 3.26088,-1.63044c0.52895,-0.12487 0.54349,0.54348 0.54349,1.08696c0,0.54348 0,1.08697 0,1.63045c0,0 0.12753,0.08274 0.54349,1.08696c0.58826,1.42018 2.17392,2.71741 2.71741,2.71741c0.54347,0 1.12025,0.32783 2.71741,0c4.0545,-0.83222 6.52177,-2.71741 8.15221,-2.71741l1.63045,-0.54348l0,-0.54348"/>
  <path d="m173.14972,90.42323c0,0 0.14491,-0.45028 0.56497,-1.12994c0.93927,-1.51977 1.19415,-3.32907 2.25989,-4.51978c2.41264,-2.69556 2.82486,-4.51978 3.38983,-5.08475c1.12994,-1.12994 1.69492,-1.12994 2.25989,-1.12994c0.56497,0 1.12994,0 1.69492,0c1.69492,0 1.78354,-0.23746 5.08475,1.12994c2.3343,0.9669 3.29063,1.75022 3.9548,2.82486c1.48511,2.40296 2.79951,3.70009 3.38982,5.64972c0.32744,1.08146 1.42342,3.97669 1.69492,5.64972c0.28618,1.76353 1.12994,3.38983 1.12994,4.51978l0,0" id="svg_10" fill-opacity="null" stroke-opacity="null" stroke-width="null" stroke="null" fill="none"/>
 </g>
</svg>
